# xmcd CD database file
#
# Track frame offsets:
#	150
#	21000
#	56450
#	89550
#	140700
#	172905
#	198510
#	232125
#	264675
#	285735
#	309930
#
# Disc length: 4288 seconds
#
# Revision: 0
# Processed by: cddbd v1.5PL3 Copyright (c) Steve Scherf et al.
# Submitted via: CDex 1.50
#
DISCID=9d10be0b
DTITLE=Evan Parker - September Winds
DYEAR=1900
DGENRE=Jazz
TTITLE0=Spar Sam
TTITLE1=Hallo Heino 
TTITLE2=Winds
TTITLE3=Insects-part 1
TTITLE4=Solopark
TTITLE5=Blackwood
TTITLE6=Anlipark
TTITLE7=Blown Chairs
TTITLE8=Sagssolo
TTITLE9=Insects-part 2
TTITLE10=Red Points
EXTD=
EXTT0=
EXTT1=
EXTT2=
EXTT3=
EXTT4=
EXTT5=
EXTT6=
EXTT7=
EXTT8=
EXTT9=
EXTT10=
PLAYORDER=
